<svg version="1.1" id="Layer_1" xmlns="http://www.w3.org/2000/svg" xmlns:xlink="http://www.w3.org/1999/xlink" x="0px" y="0px"
	 viewBox="0 0 4418 760" style="enable-background:new 0 0 4418 760;" xml:space="preserve">
<style type="text/css">
	.st0{fill:#FFFFFF;}
	.st1{fill:url(#SVGID_1_);stroke:#FFFFFF;stroke-width:8.7045;stroke-miterlimit:10;}
	.st2{fill:url(#SVGID_2_);stroke:#FFFFFF;stroke-width:8.7045;stroke-miterlimit:10;}
</style>
<g>
	<path class="st0" d="M173.3,561.4c-15.2-6.7-27.4-16.8-36.5-30.4c-9.1-13.5-13.6-30.3-13.6-50.3h54.4c0,25,15.5,37.5,46.5,37.5
		c13.4,0,23.5-2.6,30.4-7.7c6.8-5.1,10.3-11.8,10.3-19.9c0-8.9-4-16-12-21.3c-8-5.3-20.2-10.6-36.5-16.2
		c-18.9-6.8-34.1-13.1-45.5-18.9c-11.4-5.8-21.4-14.3-29.8-25.6c-8.4-11.3-12.6-25.9-12.6-43.8c0-16.8,4.1-31.3,12.4-43.6
		c8.3-12.2,19.3-21.4,32.9-27.6c13.7-6.2,28.4-9.3,44.2-9.3c16.6,0,31.9,3.3,46.1,9.9c14.2,6.6,25.6,16.6,34.1,30
		c8.5,13.4,12.8,29.8,12.8,49.3h-54c0-11.8-3.4-20.8-10.1-27c-6.7-6.2-16.4-9.3-29-9.3c-11,0-19.7,2.6-26,7.7
		c-6.3,5.1-9.5,11.8-9.5,19.9c0,9.2,3.7,16.6,11,22.1c7.4,5.5,18.5,11,33.5,16.6c21,7.6,37.1,14,48.3,19.1
		c11.2,5.1,21.2,13.3,30.2,24.4c8.9,11.2,13.4,25.7,13.4,43.6c0,17.1-4.2,31.7-12.6,43.8c-8.4,12.1-19.8,21.3-34.3,27.6
		c-14.5,6.3-30.4,9.5-47.7,9.5C205.5,571.5,188.5,568.1,173.3,561.4z"/>
	<path class="st0" d="M505.7,516.3H400L384.2,566h-58.7l93.8-276h67.4l93.8,276h-59.1L505.7,516.3z M489.5,465.4l-36.7-115.1
		l-36.7,115.1H489.5z"/>
	<path class="st0" d="M754,342h-66.6V566H633V342h-66.2v-52h120.6H754V342z"/>
	<path class="st0" d="M827,552.4c-21.8-12.7-39.1-30.1-51.8-52C762.4,478.4,756,454.3,756,428c0-26.5,6.4-50.8,19.1-72.7
		c12.7-21.9,30-39.2,51.8-51.8c21.8-12.6,45.9-18.9,72.2-18.9c26.3,0,50.4,6.3,72.3,18.9c21.9,12.6,39.3,29.9,52,51.8
		c12.7,21.9,19.1,46.2,19.1,72.7c0,26.3-6.4,50.4-19.1,72.3c-12.8,21.9-30.1,39.3-52,52c-21.9,12.8-46.1,19.1-72.3,19.1
		C872.9,571.5,848.8,565.1,827,552.4z M944.3,506.6c13.5-7.8,24.2-18.5,32.1-32.1c7.9-13.7,11.8-29.2,11.8-46.5
		c0-17.3-3.9-32.9-11.8-46.7c-7.9-13.8-18.6-24.6-32.1-32.3c-13.5-7.7-28.6-11.6-45.1-11.6c-16.6,0-31.6,3.9-45.1,11.6
		c-13.5,7.8-24.2,18.5-32.1,32.3C814,395.1,810,410.6,810,428c0,17.3,3.9,32.9,11.8,46.5c7.9,13.7,18.6,24.4,32.1,32.1
		c13.5,7.8,28.6,11.6,45.1,11.6C915.7,518.3,930.7,514.4,944.3,506.6z"/>
	<path class="st0" d="M1113.2,561.4c-15.2-6.7-27.4-16.8-36.5-30.4c-9.1-13.5-13.6-30.3-13.6-50.3h54.4c0,25,15.5,37.5,46.5,37.5
		c13.4,0,23.5-2.6,30.4-7.7c6.8-5.1,10.3-11.8,10.3-19.9c0-8.9-4-16-12-21.3c-8-5.3-20.2-10.6-36.5-16.2
		c-18.9-6.8-34.1-13.1-45.5-18.9c-11.4-5.8-21.4-14.3-29.8-25.6c-8.4-11.3-12.6-25.9-12.6-43.8c0-16.8,4.1-31.3,12.4-43.6
		s19.3-21.4,32.9-27.6c13.7-6.2,28.4-9.3,44.2-9.3c16.6,0,31.9,3.3,46.1,9.9c14.2,6.6,25.6,16.6,34.1,30
		c8.5,13.4,12.8,29.8,12.8,49.3h-54c0-11.8-3.4-20.8-10.1-27c-6.7-6.2-16.4-9.3-29-9.3c-11,0-19.7,2.6-26,7.7
		c-6.3,5.1-9.5,11.8-9.5,19.9c0,9.2,3.7,16.6,11,22.1c7.4,5.5,18.5,11,33.5,16.6c21,7.6,37.1,14,48.3,19.1
		c11.2,5.1,21.2,13.3,30.2,24.4c8.9,11.2,13.4,25.7,13.4,43.6c0,17.1-4.2,31.7-12.6,43.8c-8.4,12.1-19.8,21.3-34.3,27.6
		c-14.5,6.3-30.4,9.5-47.7,9.5C1145.4,571.5,1128.5,568.1,1113.2,561.4z"/>
	<path class="st0" d="M1494.5,290v276h-54.4V450.1h-91.5V566h-54.4V290h54.4v108h91.5V290H1494.5z"/>
	<path class="st0" d="M1600.1,290v276h-54.4V290H1600.1z"/>
	<radialGradient id="SVGID_1_" cx="1801.8207" cy="377.2402" r="181.7355" gradientUnits="userSpaceOnUse">
		<stop  offset="0" style="stop-color:#1650E6"/>
		<stop  offset="1" style="stop-color:#0A2C9E"/>
	</radialGradient>
	<path class="st1" d="M1873.8,498h-144.5l-21.6,67.9h-80.3l128.3-377.5h92.2L1976.3,566h-80.9L1873.8,498z M1851.7,428.5L1801.6,271
		l-50.2,157.5H1851.7z"/>
	<radialGradient id="SVGID_2_" cx="2050.1487" cy="377.2402" r="136.0282" gradientUnits="userSpaceOnUse">
		<stop  offset="0" style="stop-color:#1650E6"/>
		<stop  offset="1" style="stop-color:#0A2C9E"/>
	</radialGradient>
	<path class="st2" d="M2087.4,188.5V566h-74.4V188.5H2087.4z"/>
	<path class="st0" d="M2311.7,513.9v52h-145.9H2148V290h54.4h107.2v52h-107.2v59.1h97.4V452h-97.4v61.9H2311.7z"/>
	<path class="st0" d="M2507.2,513.9v52h-156.9V290h54.4v223.9H2507.2z"/>
	<path class="st0" d="M2592,290v276h-54.4V290H2592z"/>
	<path class="st0" d="M2810,342h-66.6V566h-54.4V342h-66.2v-52h120.6h66.6V342z"/>
	<path class="st0" d="M3004,513.9v52h-145.9h-17.7V290h54.4H3002v52h-107.2v59.1h97.4V452h-97.4v61.9H3004z"/>
	<path class="st0" d="M3263.6,430.6c8.5,14.1,12.8,29.9,12.8,47.5c0,16.3-3.8,31.1-11.4,44.6c-7.6,13.4-18.1,24-31.3,31.7
		c-13.3,7.8-28.1,11.6-44.4,11.6h-133.7h-13V290h54.4h60.3c15.5,0,29.5,3.2,42,9.7c12.5,6.4,22.2,15.4,29.2,26.8
		c7,11.4,10.4,24.1,10.4,38c0,11.6-3.4,22.7-10.3,33.5C3243.4,405.7,3255,416.5,3263.6,430.6z M3097,340.9v46.5h79.2
		c5.5-5.5,8.3-12.2,8.3-20.1c0-7.9-2.4-14.3-7.3-19.1c-4.9-4.9-11.5-7.3-19.9-7.3H3097z M3211.7,503.9c6.8-7.5,10.3-17,10.3-28.6
		c0-11.8-3.4-21.4-10.3-28.8c-6.8-7.4-16.6-11-29.2-11H3097v79.6h85.2C3195,515.1,3204.9,511.4,3211.7,503.9z"/>
	<path class="st0" d="M3369.1,552.4c-21.8-12.7-39.1-30.1-51.8-52c-12.8-21.9-19.1-46.1-19.1-72.3c0-26.5,6.4-50.8,19.1-72.7
		c12.7-21.9,30-39.2,51.8-51.8c21.8-12.6,45.9-18.9,72.2-18.9c26.3,0,50.4,6.3,72.3,18.9c21.9,12.6,39.3,29.9,52,51.8
		c12.7,21.9,19.1,46.2,19.1,72.7c0,26.3-6.4,50.4-19.1,72.3c-12.8,21.9-30.1,39.3-52,52c-21.9,12.8-46.1,19.1-72.3,19.1
		C3414.9,571.5,3390.9,565.1,3369.1,552.4z M3486.3,506.6c13.5-7.8,24.2-18.5,32.1-32.1c7.9-13.7,11.8-29.2,11.8-46.5
		c0-17.3-3.9-32.9-11.8-46.7c-7.9-13.8-18.6-24.6-32.1-32.3c-13.5-7.7-28.6-11.6-45.1-11.6c-16.6,0-31.6,3.9-45.1,11.6
		c-13.5,7.8-24.2,18.5-32.1,32.3c-7.9,13.8-11.8,29.4-11.8,46.7c0,17.3,3.9,32.9,11.8,46.5c7.9,13.7,18.6,24.4,32.1,32.1
		c13.5,7.8,28.6,11.6,45.1,11.6C3457.8,518.3,3472.8,514.4,3486.3,506.6z"/>
	<path class="st0" d="M3774,342h-66.6V566h-54.4V342h-66.2v-52h120.6h66.6V342z"/>
	<path class="st0" d="M3764.1,509.6h56V566h-56V509.6z"/>
	<path class="st0" d="M3915.9,561.1c-15.2-7-27.3-17.2-36.1-30.8c-8.8-13.5-13.2-29.8-13.2-48.7V290h54.4v187.3
		c0,13.1,3.8,23.3,11.4,30.4c7.6,7.1,19.2,10.6,34.7,10.6c31,0,46.5-13.7,46.5-41V290h54v191.6c0,18.9-4.4,35.2-13.2,48.7
		c-8.8,13.5-20.8,23.8-36.1,30.8c-15.2,7-32.3,10.4-51.3,10.4S3931.1,568,3915.9,561.1z"/>
	<path class="st0" d="M4149.3,561.4c-15.2-6.7-27.4-16.8-36.5-30.4c-9.1-13.5-13.6-30.3-13.6-50.3h54.4c0,25,15.5,37.5,46.5,37.5
		c13.4,0,23.5-2.6,30.4-7.7c6.8-5.1,10.3-11.8,10.3-19.9c0-8.9-4-16-12-21.3c-8-5.3-20.2-10.6-36.5-16.2
		c-18.9-6.8-34.1-13.1-45.5-18.9c-11.4-5.8-21.4-14.3-29.8-25.6c-8.4-11.3-12.6-25.9-12.6-43.8c0-16.8,4.1-31.3,12.4-43.6
		c8.3-12.2,19.3-21.4,32.9-27.6c13.7-6.2,28.4-9.3,44.2-9.3c16.6,0,31.9,3.3,46.1,9.9c14.2,6.6,25.6,16.6,34.1,30
		c8.5,13.4,12.8,29.8,12.8,49.3h-54c0-11.8-3.4-20.8-10.1-27c-6.7-6.2-16.4-9.3-29-9.3c-11,0-19.7,2.6-26,7.7
		c-6.3,5.1-9.5,11.8-9.5,19.9c0,9.2,3.7,16.6,11,22.1c7.4,5.5,18.5,11,33.5,16.6c21,7.6,37.1,14,48.3,19.1
		c11.2,5.1,21.2,13.3,30.2,24.4c8.9,11.2,13.4,25.7,13.4,43.6c0,17.1-4.2,31.7-12.6,43.8c-8.4,12.1-19.8,21.3-34.3,27.6
		c-14.5,6.3-30.4,9.5-47.7,9.5C4181.5,571.5,4164.5,568.1,4149.3,561.4z"/>
</g>
</svg>
