<svg xmlns="http://www.w3.org/2000/svg" viewBox="0 0 96.07 75.94"><defs><style>.cls-1{fill:#fff;}</style></defs><g id="Layer_2" data-name="Layer 2"><g id="Layer_1-2" data-name="Layer 1"><path class="cls-1" d="M96.07,0V75.94H85.67l-4.32-4.32L22.51,12.78c-.44.27-.87.57-1.29.88s-1,.8-1.55,1.24-.81.73-1.2,1.12c-5.07,5.06-8.12,12.56-8.12,21.38,0,16.31,10.83,28.56,25.78,28.08A26.87,26.87,0,0,0,56.84,55.11l6.68,6.68A30.57,30.57,0,0,1,53,70.84a36.07,36.07,0,0,1-16.84,4C15.19,74.8,0,59,0,37.4,0,25.85,4.23,16,11.3,9.27q.48-.45,1-.87A33,33,0,0,1,18.64,4a34.45,34.45,0,0,1,7.51-2.88,35.64,35.64,0,0,1,4.09-.8A38.5,38.5,0,0,1,35.44,0C49.32,0,61.35,7.55,66.26,18.7l-8.38,3.52c-3-6.89-11.21-11.47-18.54-12.77a21.84,21.84,0,0,0-3.9-.35c-.31,0-.62,0-.93,0h-.37l1.45,1.45,50,50.16-.07-4.08V0Z"/></g></g></svg>