<svg id="Layer_1" data-name="Layer 1" xmlns="http://www.w3.org/2000/svg" xmlns:xlink="http://www.w3.org/1999/xlink" viewBox="0 0 444 394"><defs><style>.cls-1,.cls-10,.cls-11,.cls-12,.cls-13,.cls-14,.cls-16,.cls-17,.cls-18,.cls-19,.cls-2,.cls-20,.cls-3,.cls-4,.cls-5,.cls-6,.cls-7,.cls-8,.cls-9{stroke:#162e54;stroke-miterlimit:10;stroke-width:0.25px;}.cls-1{fill:url(#linear-gradient);}.cls-2{fill:url(#linear-gradient-2);}.cls-3{fill:url(#linear-gradient-3);}.cls-4{fill:url(#linear-gradient-4);}.cls-5{fill:url(#linear-gradient-5);}.cls-6{fill:url(#linear-gradient-6);}.cls-7{fill:url(#linear-gradient-7);}.cls-8{fill:url(#linear-gradient-8);}.cls-9{fill:url(#linear-gradient-9);}.cls-10{fill:url(#linear-gradient-10);}.cls-11{fill:url(#linear-gradient-11);}.cls-12{fill:url(#linear-gradient-12);}.cls-13{fill:url(#linear-gradient-13);}.cls-14{fill:url(#linear-gradient-14);}.cls-15{fill:url(#linear-gradient-15);}.cls-16{fill:none;}.cls-17,.cls-18,.cls-19,.cls-20{fill-rule:evenodd;}.cls-17{fill:url(#linear-gradient-23);}.cls-18{fill:url(#linear-gradient-24);}.cls-19{fill:url(#linear-gradient-25);}.cls-20{fill:url(#linear-gradient-26);}</style><linearGradient id="linear-gradient" x1="14.8" y1="291.73" x2="42.64" y2="291.73" gradientUnits="userSpaceOnUse"><stop offset="0" stop-color="#bbbcc0"/><stop offset="1" stop-color="#fff"/></linearGradient><linearGradient id="linear-gradient-2" x1="46.35" y1="291.73" x2="74.23" y2="291.73" xlink:href="#linear-gradient"/><linearGradient id="linear-gradient-3" x1="74.47" y1="291.73" x2="109.01" y2="291.73" xlink:href="#linear-gradient"/><linearGradient id="linear-gradient-4" x1="111.46" y1="291.73" x2="139.33" y2="291.73" xlink:href="#linear-gradient"/><linearGradient id="linear-gradient-5" x1="140.99" y1="291.73" x2="168.86" y2="291.73" xlink:href="#linear-gradient"/><linearGradient id="linear-gradient-6" x1="169.8" y1="291.73" x2="197.64" y2="291.73" xlink:href="#linear-gradient"/><linearGradient id="linear-gradient-7" x1="204.41" y1="291.73" x2="232.28" y2="291.73" xlink:href="#linear-gradient"/><linearGradient id="linear-gradient-8" x1="238.71" y1="291.73" x2="242.75" y2="291.73" xlink:href="#linear-gradient"/><linearGradient id="linear-gradient-9" x1="247.83" y1="291.73" x2="268.97" y2="291.73" xlink:href="#linear-gradient"/><linearGradient id="linear-gradient-10" x1="270.21" y1="291.73" x2="298.05" y2="291.73" xlink:href="#linear-gradient"/><linearGradient id="linear-gradient-11" x1="299.28" y1="291.73" x2="327.16" y2="291.73" xlink:href="#linear-gradient"/><linearGradient id="linear-gradient-12" x1="333.23" y1="291.73" x2="361.1" y2="291.73" xlink:href="#linear-gradient"/><linearGradient id="linear-gradient-13" x1="367.35" y1="291.73" x2="395.19" y2="291.73" xlink:href="#linear-gradient"/><linearGradient id="linear-gradient-14" x1="396.13" y1="291.73" x2="424" y2="291.73" xlink:href="#linear-gradient"/><linearGradient id="linear-gradient-15" x1="219.4" y1="264.12" x2="219.4" y2="87.97" xlink:href="#linear-gradient"/><linearGradient id="linear-gradient-23" x1="174.23" y1="168.3" x2="265.03" y2="168.3" xlink:href="#linear-gradient"/><linearGradient id="linear-gradient-24" x1="207.32" y1="206.18" x2="230.9" y2="206.18" xlink:href="#linear-gradient"/><linearGradient id="linear-gradient-25" x1="245.74" y1="176.1" x2="283.33" y2="176.1" gradientUnits="userSpaceOnUse"><stop offset="0" stop-color="#ff9a00"/><stop offset="1" stop-color="#ffda3e"/></linearGradient><linearGradient id="linear-gradient-26" x1="155.46" y1="183.41" x2="202.1" y2="183.41" xlink:href="#linear-gradient-25"/></defs><path class="cls-1" d="M25.37,278.24h17c.18,0,.27.11.27.34v4.48c0,.23-.09.34-.27.34h-17a5.37,5.37,0,0,0-3.27,1.12,7.64,7.64,0,0,0-2.38,3,9.94,9.94,0,0,0-.88,4.18,9.27,9.27,0,0,0,1.92,5.88,5.69,5.69,0,0,0,4.61,2.44h17c.18,0,.27.12.27.35v4.47c0,.23-.09.35-.27.35h-17a8.71,8.71,0,0,1-5.3-1.81,12.4,12.4,0,0,1-3.85-4.92,16.82,16.82,0,0,1,0-13.53,12.36,12.36,0,0,1,3.85-4.91A8.65,8.65,0,0,1,25.37,278.24Z"/><path class="cls-2" d="M67.43,294.43l5.92,10.79H68.79a.59.59,0,0,1-.23,0,.53.53,0,0,1-.19-.15l-.14-.18a1.67,1.67,0,0,1-.13-.25,1.47,1.47,0,0,0-.13-.23c-.52-.95-1.08-2-1.69-3.08l-1.93-3.55c-.68-1.26-1.24-2.27-1.66-3l-.21-.39H50.4v10.56c0,.23-.09.35-.27.35h-3.5c-.19,0-.28-.12-.28-.35V278.58c0-.23.09-.34.28-.34H67.91a5.22,5.22,0,0,1,3.18,1.08,7.37,7.37,0,0,1,2.29,2.93,9.57,9.57,0,0,1,.85,4,9.71,9.71,0,0,1-.44,2.93,8.59,8.59,0,0,1-1.19,2.45,7.2,7.2,0,0,1-1.8,1.77,5,5,0,0,1-2.19.87Zm-17-11v5.75H67.94a2,2,0,0,0,1.61-.85,3.44,3.44,0,0,0,0-4.05,2,2,0,0,0-1.61-.85Z"/><path class="cls-3" d="M109,278.24,93.76,292.88v12c0,.23-.1.35-.3.35H90c-.18,0-.27-.12-.27-.35V292.81L74.47,278.24h6.28a1.31,1.31,0,0,1,.32.25q.23.21.48.48a2.45,2.45,0,0,0,.32.31l9.87,9.48,9.88-9.48.18-.16a2.89,2.89,0,0,0,.24-.25l.25-.29a2.94,2.94,0,0,1,.26-.25.36.36,0,0,1,.18-.09Z"/><path class="cls-4" d="M115.23,305.22h-3.5c-.18,0-.27-.12-.27-.35V278.58c0-.23.09-.34.27-.34H133a5.5,5.5,0,0,1,4.45,2.35,8.84,8.84,0,0,1,1.86,5.66,9.63,9.63,0,0,1-.51,3.15,9,9,0,0,1-1.35,2.56,6.12,6.12,0,0,1-2,1.71,5,5,0,0,1-2.44.64H115.5v10.56C115.5,305.1,115.41,305.22,115.23,305.22Zm.27-21.82v5.75h17.55a2,2,0,0,0,1.6-.85,3.44,3.44,0,0,0,0-4.05,2,2,0,0,0-1.6-.85Z"/><path class="cls-5" d="M168.56,278.24c.2,0,.3.11.3.34v4.48c0,.23-.1.34-.3.34H156.94v21.47c0,.23-.09.35-.28.35h-3.47c-.2,0-.3-.12-.3-.35V283.4H141.26c-.18,0-.27-.11-.27-.34v-4.48c0-.23.09-.34.27-.34Z"/><path class="cls-6" d="M180.37,278.24h6.7a8.68,8.68,0,0,1,5.29,1.81,12.3,12.3,0,0,1,3.86,4.91,16.82,16.82,0,0,1,0,13.53,12.33,12.33,0,0,1-3.86,4.92,8.75,8.75,0,0,1-5.29,1.81h-6.7a8.73,8.73,0,0,1-5.3-1.81,12.49,12.49,0,0,1-3.85-4.92,16.82,16.82,0,0,1,0-13.53,12.45,12.45,0,0,1,3.85-4.91A8.67,8.67,0,0,1,180.37,278.24Zm6.7,21.81a5.71,5.71,0,0,0,4.61-2.44,10,10,0,0,0,0-11.76,5.72,5.72,0,0,0-4.61-2.45h-6.7a5.34,5.34,0,0,0-3.26,1.12,7.66,7.66,0,0,0-2.39,3,9.93,9.93,0,0,0-.87,4.18,9.32,9.32,0,0,0,1.91,5.88,5.71,5.71,0,0,0,4.61,2.44Z"/><path class="cls-7" d="M208.18,305.22h-3.5c-.18,0-.27-.12-.27-.35V278.58c0-.23.09-.34.27-.34H226a5.51,5.51,0,0,1,4.45,2.35,8.84,8.84,0,0,1,1.86,5.66,9.38,9.38,0,0,1-.52,3.15,9,9,0,0,1-1.34,2.56,6.12,6.12,0,0,1-2,1.71,5,5,0,0,1-2.44.64H208.45v10.56C208.45,305.1,208.36,305.22,208.18,305.22Zm.27-21.82v5.75H226a2,2,0,0,0,1.6-.85,3.44,3.44,0,0,0,0-4.05,2,2,0,0,0-1.6-.85Z"/><path class="cls-8" d="M239,305.22c-.18,0-.27-.12-.27-.35V278.58c0-.23.09-.34.27-.34h3.5c.18,0,.27.11.27.34v26.29c0,.23-.09.35-.27.35Z"/><path class="cls-9" d="M248.1,305.22c-.18,0-.27-.12-.27-.35V278.58c0-.23.09-.34.27-.34h3.51c.18,0,.27.11.27.34v21.47H268.7c.18,0,.27.12.27.35v4.47c0,.23-.09.35-.27.35Z"/><path class="cls-10" d="M280.77,278.24h6.71a8.68,8.68,0,0,1,5.28,1.81,12.41,12.41,0,0,1,3.87,4.91,16.82,16.82,0,0,1,0,13.53,12.44,12.44,0,0,1-3.87,4.92,8.74,8.74,0,0,1-5.28,1.81h-6.71a8.76,8.76,0,0,1-5.3-1.81,12.49,12.49,0,0,1-3.85-4.92,16.93,16.93,0,0,1,0-13.53,12.45,12.45,0,0,1,3.85-4.91A8.69,8.69,0,0,1,280.77,278.24Zm6.71,21.81a5.67,5.67,0,0,0,4.6-2.44,10,10,0,0,0,0-11.76,5.69,5.69,0,0,0-4.6-2.45h-6.71a5.36,5.36,0,0,0-3.26,1.12,7.64,7.64,0,0,0-2.38,3,9.79,9.79,0,0,0-.88,4.18,9.27,9.27,0,0,0,1.92,5.88,5.69,5.69,0,0,0,4.6,2.44Z"/><path class="cls-11" d="M326.85,278.24c.21,0,.31.11.31.34v4.48c0,.23-.1.34-.31.34H315.23v21.47c0,.23-.09.35-.27.35h-3.48c-.2,0-.3-.12-.3-.35V283.4H299.56c-.19,0-.28-.11-.28-.34v-4.48c0-.23.09-.34.28-.34Z"/><path class="cls-12" d="M333.23,278.58c0-.23.09-.34.27-.34h21.32a5.21,5.21,0,0,1,3.35,1.21,7.73,7.73,0,0,1,2.33,3.34,10.2,10.2,0,0,1,.57,4.33,9.18,9.18,0,0,1-1.27,4.07l-.33.54.33.54a9.14,9.14,0,0,1,1.27,4.06,10.25,10.25,0,0,1-.57,4.34,8.69,8.69,0,0,1-1.41,2.45,6,6,0,0,1-1.95,1.56,5.14,5.14,0,0,1-2.32.54H333.5c-.18,0-.27-.12-.27-.35Zm21.59,4.82H337.27v5.75h17.55a2,2,0,0,0,1.6-.83,3.31,3.31,0,0,0,.63-2.07,3.7,3.7,0,0,0-.27-1.42A2,2,0,0,0,354.82,283.4Zm-17.55,16.65h17.55a2,2,0,0,0,1.6-.81,3.2,3.2,0,0,0,.63-2,4,4,0,0,0-.27-1.46,2,2,0,0,0-2-1.43H337.27Z"/><path class="cls-13" d="M377.92,278.24h6.7a8.71,8.71,0,0,1,5.29,1.81,12.3,12.3,0,0,1,3.86,4.91,16.82,16.82,0,0,1,0,13.53,12.33,12.33,0,0,1-3.86,4.92,8.77,8.77,0,0,1-5.29,1.81h-6.7a8.73,8.73,0,0,1-5.3-1.81,12.49,12.49,0,0,1-3.85-4.92,16.82,16.82,0,0,1,0-13.53,12.45,12.45,0,0,1,3.85-4.91A8.67,8.67,0,0,1,377.92,278.24Zm6.7,21.81a5.71,5.71,0,0,0,4.61-2.44,10,10,0,0,0,0-11.76,5.72,5.72,0,0,0-4.61-2.45h-6.7a5.32,5.32,0,0,0-3.26,1.12,7.57,7.57,0,0,0-2.39,3,9.93,9.93,0,0,0-.87,4.18,9.32,9.32,0,0,0,1.91,5.88,5.71,5.71,0,0,0,4.61,2.44Z"/><path class="cls-14" d="M423.7,278.24c.2,0,.3.11.3.34v4.48c0,.23-.1.34-.3.34H412.07v21.47c0,.23-.09.35-.27.35h-3.47c-.2,0-.3-.12-.3-.35V283.4H396.4c-.18,0-.27-.11-.27-.34v-4.48c0-.23.09-.34.27-.34Z"/><path class="cls-15" d="M278.67,160.45a4.28,4.28,0,1,0,0,3.64h17.72a1.82,1.82,0,0,0,1.29-.54l12.92-12.91h31.17a7.66,7.66,0,1,0,0-3.64H309.84a1.85,1.85,0,0,0-1.29.53l-12.91,12.92Zm70.52-15.65a4,4,0,1,1-4,4A4,4,0,0,1,349.19,144.8Z"/><path class="cls-15" d="M319.53,174.23H278.67a4.28,4.28,0,1,0,0,3.64h40.86a7.66,7.66,0,1,0,0-3.64ZM331,176.05a4,4,0,1,1-4-4A4,4,0,0,1,331,176.05Z"/><path class="cls-15" d="M349.19,195.62a7.66,7.66,0,0,0-7.42,5.83H322.88L310,188.54a1.81,1.81,0,0,0-1.28-.53h-30a4.28,4.28,0,1,0,0,3.64h29.25l12.92,12.91a1.82,1.82,0,0,0,1.29.54h19.64a7.65,7.65,0,1,0,7.42-9.48Zm0,11.67a4,4,0,1,1,4-4A4,4,0,0,1,349.19,207.29Z"/><path class="cls-15" d="M89.61,156.47A7.64,7.64,0,0,0,97,150.64H128.2l12.92,12.91a1.82,1.82,0,0,0,1.29.54h17.72a4.29,4.29,0,1,0,0-3.64h-17l-12.92-12.92A1.81,1.81,0,0,0,129,147H97a7.65,7.65,0,1,0-7.41,9.47Zm0-11.67a4,4,0,1,1-4,4A4,4,0,0,1,89.61,144.8Z"/><path class="cls-15" d="M164,171.76a4.27,4.27,0,0,0-3.86,2.47H119.27a7.65,7.65,0,1,0,0,3.64h40.86a4.28,4.28,0,1,0,3.86-6.11Zm-52.13,8.3a4,4,0,1,1,4-4A4,4,0,0,1,111.86,180.06Z"/><path class="cls-15" d="M164,194.11a4.28,4.28,0,1,0-3.86-6.1h-30a1.83,1.83,0,0,0-1.29.53l-12.91,12.91H97a7.66,7.66,0,1,0,0,3.65h19.65a1.84,1.84,0,0,0,1.29-.54l12.91-12.91h29.26A4.26,4.26,0,0,0,164,194.11ZM89.61,207.29a4,4,0,1,1,4-4A4,4,0,0,1,89.61,207.29Z"/><path class="cls-15" d="M141.43,139.08a1.83,1.83,0,0,0,2.44-.81,84.46,84.46,0,0,1,151.06,0,1.82,1.82,0,1,0,3.25-1.64,88.11,88.11,0,0,0-157.57,0A1.82,1.82,0,0,0,141.43,139.08Z"/><path class="cls-15" d="M297.37,213a1.82,1.82,0,0,0-2.45.81,84.46,84.46,0,0,1-151,0,1.82,1.82,0,0,0-3.26,1.63,88.11,88.11,0,0,0,157.56,0A1.82,1.82,0,0,0,297.37,213Z"/><path class="cls-16" d="M278.67,160.45a4.28,4.28,0,1,0,0,3.64h17.72a1.82,1.82,0,0,0,1.29-.54l12.92-12.91h31.17a7.66,7.66,0,1,0,0-3.64H309.84a1.85,1.85,0,0,0-1.29.53l-12.91,12.92Zm70.52-15.65a4,4,0,1,1-4,4A4,4,0,0,1,349.19,144.8Z"/><path class="cls-16" d="M319.53,174.23H278.67a4.28,4.28,0,1,0,0,3.64h40.86a7.66,7.66,0,1,0,0-3.64ZM331,176.05a4,4,0,1,1-4-4A4,4,0,0,1,331,176.05Z"/><path class="cls-16" d="M349.19,195.62a7.66,7.66,0,0,0-7.42,5.83H322.88L310,188.54a1.81,1.81,0,0,0-1.28-.53h-30a4.28,4.28,0,1,0,0,3.64h29.25l12.92,12.91a1.82,1.82,0,0,0,1.29.54h19.64a7.65,7.65,0,1,0,7.42-9.48Zm0,11.67a4,4,0,1,1,4-4A4,4,0,0,1,349.19,207.29Z"/><path class="cls-16" d="M89.61,156.47A7.64,7.64,0,0,0,97,150.64H128.2l12.92,12.91a1.82,1.82,0,0,0,1.29.54h17.72a4.29,4.29,0,1,0,0-3.64h-17l-12.92-12.92A1.81,1.81,0,0,0,129,147H97a7.65,7.65,0,1,0-7.41,9.47Zm0-11.67a4,4,0,1,1-4,4A4,4,0,0,1,89.61,144.8Z"/><path class="cls-16" d="M164,171.76a4.27,4.27,0,0,0-3.86,2.47H119.27a7.65,7.65,0,1,0,0,3.64h40.86a4.28,4.28,0,1,0,3.86-6.11Zm-52.13,8.3a4,4,0,1,1,4-4A4,4,0,0,1,111.86,180.06Z"/><path class="cls-16" d="M164,194.11a4.28,4.28,0,1,0-3.86-6.1h-30a1.83,1.83,0,0,0-1.29.53l-12.91,12.91H97a7.66,7.66,0,1,0,0,3.65h19.65a1.84,1.84,0,0,0,1.29-.54l12.91-12.91h29.26A4.26,4.26,0,0,0,164,194.11ZM89.61,207.29a4,4,0,1,1,4-4A4,4,0,0,1,89.61,207.29Z"/><path class="cls-16" d="M141.43,139.08a1.83,1.83,0,0,0,2.44-.81,84.46,84.46,0,0,1,151.06,0,1.82,1.82,0,1,0,3.25-1.64,88.11,88.11,0,0,0-157.57,0A1.82,1.82,0,0,0,141.43,139.08Z"/><path class="cls-16" d="M297.37,213a1.82,1.82,0,0,0-2.45.81,84.46,84.46,0,0,1-151,0,1.82,1.82,0,0,0-3.26,1.63,88.11,88.11,0,0,0,157.56,0A1.82,1.82,0,0,0,297.37,213Z"/><path class="cls-17" d="M174.23,142.41V168.3a25.74,25.74,0,0,0,5.07,15.35s0,0,0,0a25.92,25.92,0,0,0,20.81,10.51h39a25.88,25.88,0,0,0,20.26-9.82v0h0a25.68,25.68,0,0,0,5.61-16V142.41Zm30.11,38.12a12.23,12.23,0,1,1,12.23-12.23A12.26,12.26,0,0,1,204.34,180.53Zm35.26-4.67a7.56,7.56,0,1,1,7.56-7.56A7.59,7.59,0,0,1,239.6,175.86Z"/><path class="cls-18" d="M230.75,203.82a12.23,12.23,0,0,1-23.28,0,2.78,2.78,0,0,1,.41-2.58,2.82,2.82,0,0,1,2.33-1.18H228a2.87,2.87,0,0,1,2.74,3.76Z"/><path class="cls-19" d="M262.24,176.1c-1.86,2.11-2.93,5-2.93,8.89v15.77c0,2.81-.46,3.22-2.79,3.22h-6.16a4.63,4.63,0,0,0-4.62,4.62v1.67a4.63,4.63,0,0,0,4.62,4.62h6.16c8.68,0,13.69-5.62,13.69-14.13V185a2.53,2.53,0,0,1,2-2.6,25.83,25.83,0,0,1,6.61-.8,4.62,4.62,0,0,0,4.49-4.62v-1.75a4.61,4.61,0,0,0-4.49-4.61,25.78,25.78,0,0,1-6.61-.81,2.53,2.53,0,0,1-2-2.6V151.44c0-8.52-5-14.14-13.69-14.14h-6.16a4.63,4.63,0,0,0-4.62,4.62v1.67a4.63,4.63,0,0,0,4.62,4.62h6.16c2.33,0,2.79.41,2.79,3.23V167.2C259.31,171.11,260.38,174,262.24,176.1Z"/><path class="cls-20" d="M202.1,220.46a9,9,0,0,1-16.26,5.46h-3.56c-8.69,0-13.7-5.62-13.7-14.13V185a2.53,2.53,0,0,0-2-2.61,26.24,26.24,0,0,0-6.61-.81,4.61,4.61,0,0,1-4.5-4.6v-1.76a4.64,4.64,0,0,1,4.5-4.62,25.39,25.39,0,0,0,6.61-.8,2.52,2.52,0,0,0,2-2.6V151.42c0-8.5,5-14.13,13.7-14.13h6.15a4.62,4.62,0,0,1,4.56,3.87,4.56,4.56,0,0,1,.06.75v1.67a4.62,4.62,0,0,1-4.62,4.62h-6.15c-2.34,0-2.79.41-2.79,3.22V167.2c0,3.9-1.07,6.78-2.94,8.9a11.58,11.58,0,0,1,2.75,6.3h0a19,19,0,0,1,.18,2.59v26.79c0,2.81.45,3.23,2.79,3.23h3.56a9,9,0,0,1,16.26,5.44Z"/></svg>