<svg xmlns="http://www.w3.org/2000/svg" viewBox="0 0 696.16 94.16"><defs><style>.cls-1{fill:#fff;}</style></defs><g id="Layer_2" data-name="Layer 2"><g id="Layer_1-2" data-name="Layer 1"><path class="cls-1" d="M96.07,0V75.94H85.67l-4.32-4.32L22.51,12.78c-.44.27-.87.57-1.29.88s-1,.8-1.55,1.24-.81.73-1.2,1.12c-5.07,5.06-8.12,12.56-8.12,21.38,0,16.31,10.83,28.56,25.78,28.08A26.87,26.87,0,0,0,56.84,55.11l6.68,6.68A30.57,30.57,0,0,1,53,70.84a36.07,36.07,0,0,1-16.84,4C15.19,74.8,0,59,0,37.4,0,25.85,4.23,16,11.3,9.27q.48-.45,1-.87A33,33,0,0,1,18.64,4a34.45,34.45,0,0,1,7.51-2.88,35.64,35.64,0,0,1,4.09-.8A38.5,38.5,0,0,1,35.44,0C49.32,0,61.35,7.55,66.26,18.7l-8.38,3.52c-3-6.89-11.21-11.47-18.54-12.77a21.84,21.84,0,0,0-3.9-.35c-.31,0-.62,0-.93,0h-.37l1.45,1.45,50,50.16-.07-4.08V0Z"/><path class="cls-1" d="M201.57,60a19.39,19.39,0,0,1-12.37,3.91,20.69,20.69,0,0,1-11.7-3.34,21.25,21.25,0,0,1-7.71-9.29,32.82,32.82,0,0,1-2.67-13.56,32.68,32.68,0,0,1,2.67-13.6,21.28,21.28,0,0,1,7.71-9.24,20.62,20.62,0,0,1,11.7-3.34,19.69,19.69,0,0,1,12.43,3.9,19.11,19.11,0,0,1,6.77,10.78h11.81A29.75,29.75,0,0,0,215,13a27.1,27.1,0,0,0-10.62-8.78,33.78,33.78,0,0,0-14.64-3.08A35.78,35.78,0,0,0,171.38,5.7a30.86,30.86,0,0,0-12.11,12.83A41.25,41.25,0,0,0,155,37.68a41.51,41.51,0,0,0,4.26,19.26,30.56,30.56,0,0,0,12.11,12.78,36.16,36.16,0,0,0,18.33,4.52,33.81,33.81,0,0,0,14.69-3.08,27.1,27.1,0,0,0,10.52-8.73,29.77,29.77,0,0,0,5.19-13.25H208.3A19.18,19.18,0,0,1,201.57,60Z"/><path class="cls-1" d="M255.74,21.05c-4,0-7.25.7-9.65,2.1a16.74,16.74,0,0,0-5.85,5.8L239,21.05h-9.85V73.62h11.09V47.23c0-4.58,1-8.37,3.08-11.34s5.37-4.47,10-4.47h4.93V21.05Z"/><path class="cls-1" d="M301.43,21.05,287.16,61.61,272.48,21.05H260.67l20.54,53-2.16,5q-1.33,3.39-2.57,4.37c-.82.65-2.29,1-4.41,1h-7.81v9.76h11.92a12.28,12.28,0,0,0,6.05-1.28,10.63,10.63,0,0,0,3.8-3.8,47.41,47.41,0,0,0,3.39-7.24l23.82-60.79Z"/><path class="cls-1" d="M368.69,33a22.34,22.34,0,0,0-8.83-9.34A25.3,25.3,0,0,0,347,20.43a20.4,20.4,0,0,0-17.15,8.42l-1.33-7.8h-9.66V94.16H330V66.23a18.07,18.07,0,0,0,6.88,5.85A22.48,22.48,0,0,0,347,74.24a24.67,24.67,0,0,0,12.83-3.34,23,23,0,0,0,8.83-9.45,30,30,0,0,0,3.19-14.12A30.49,30.49,0,0,0,368.69,33ZM356.32,60a14,14,0,0,1-11.14,4.93A13.86,13.86,0,0,1,334.09,60q-4.21-4.92-4.21-12.83,0-7.69,4.21-12.48a15.28,15.28,0,0,1,22.23.05q4.26,4.83,4.26,12.63T356.32,60Z"/><path class="cls-1" d="M400.42,63.87c-2,0-3.38-.43-4.21-1.29S395,60.27,395,58.22V30.8h12.63V21.05H395V6.36H383.79V21.05h-9.14V30.8h9.14V59.35q0,7.29,3.44,10.78t10.94,3.49h10.68V63.87Z"/><path class="cls-1" d="M462,33.32a23.67,23.67,0,0,0-9.45-9.5,30.67,30.67,0,0,0-28,0,23.61,23.61,0,0,0-9.45,9.5,28.79,28.79,0,0,0-3.34,14,29,29,0,0,0,3.34,14.12,23.19,23.19,0,0,0,9.45,9.45,31.07,31.07,0,0,0,28,0A23.25,23.25,0,0,0,462,61.45a29,29,0,0,0,3.33-14.12A28.79,28.79,0,0,0,462,33.32ZM449.77,59.91a14.21,14.21,0,0,1-11.25,4.88,14.06,14.06,0,0,1-11.19-4.88q-4.21-4.87-4.21-12.58t4.21-12.57a14,14,0,0,1,11.19-4.88,14.18,14.18,0,0,1,11.25,4.88Q454,39.64,454,47.33T449.77,59.91Z"/><path class="cls-1" d="M517.23,26.18q-5.9-5.74-15.25-5.75-10.87,0-16.84,7.5l-1.23-6.88h-9.65V73.62h11.09V47.13q0-8,3.75-12.58A12.59,12.59,0,0,1,499.42,30q6.15,0,9.34,3.9t3.18,11.4V73.62h11.2v-29Q523.14,31.94,517.23,26.18Z"/><path class="cls-1" d="M582.49,49.7a30.6,30.6,0,0,0,.31-4.21,26.36,26.36,0,0,0-3.44-13.25,23.05,23.05,0,0,0-9.14-8.73,28.21,28.21,0,0,0-13.4-3.08,26.14,26.14,0,0,0-13.3,3.34,23.08,23.08,0,0,0-9,9.45,30,30,0,0,0-3.23,14.22,28.64,28.64,0,0,0,3.34,14.07A23.32,23.32,0,0,0,544,70.9a29.4,29.4,0,0,0,14.33,3.34q9.45,0,15.76-5.14A21.26,21.26,0,0,0,581.87,56H570.78a11.42,11.42,0,0,1-4.62,6.83,14.79,14.79,0,0,1-8.62,2.41,13.8,13.8,0,0,1-10.37-4c-2.61-2.67-4-6.3-4.32-10.89V49.7Zm-34.66-17a14.13,14.13,0,0,1,9.4-3.33,14.55,14.55,0,0,1,9.7,3.23,13.39,13.39,0,0,1,4.57,9H543.26A13.11,13.11,0,0,1,547.83,32.7Z"/><path class="cls-1" d="M611.34,63.87c-2,0-3.38-.43-4.21-1.29s-1.23-2.31-1.23-4.36V30.8h12.63V21.05H605.9V6.36H594.71V21.05h-9.14V30.8h9.14V59.35q0,7.29,3.44,10.78t10.93,3.49h10.68V63.87Z"/><path class="cls-1" d="M625.72,21.05V73.62h11.09V21.05ZM636.09,1.9a7.08,7.08,0,0,0-9.65,0,6.38,6.38,0,0,0-2,4.77,6.4,6.4,0,0,0,2,4.78,7.08,7.08,0,0,0,9.65,0A6.4,6.4,0,0,0,638,6.67,6.38,6.38,0,0,0,636.09,1.9Z"/><path class="cls-1" d="M680.45,62.07a14.43,14.43,0,0,1-19.25-2.16q-4.07-4.87-4.06-12.68T661.2,34.7a13.33,13.33,0,0,1,10.73-4.82,13,13,0,0,1,8.31,2.67,12.76,12.76,0,0,1,4.52,7.19h11.4a22.61,22.61,0,0,0-7.8-14.12q-6.27-5.19-16.13-5.19a28.13,28.13,0,0,0-13.91,3.34A23.2,23.2,0,0,0,649,33.16a29.07,29.07,0,0,0-3.29,14.07A30,30,0,0,0,649,61.4a22.7,22.7,0,0,0,9.19,9.5,27.63,27.63,0,0,0,13.76,3.34q10,0,16.32-5.19t7.91-14.32H684.87A12.6,12.6,0,0,1,680.45,62.07Z"/></g></g></svg>