<?xml version="1.0" encoding="utf-8"?>
<!-- Generator: Adobe Illustrator 26.0.3, SVG Export Plug-In . SVG Version: 6.00 Build 0)  -->
<svg version="1.1" id="Layer_1" xmlns="http://www.w3.org/2000/svg" xmlns:xlink="http://www.w3.org/1999/xlink" x="0px" y="0px"
	 viewBox="0 0 160 32" style="enable-background:new 0 0 160 32;" xml:space="preserve">
<style type="text/css">
	.st0{fill:#A0A9BD;}
</style>
<g>
	<path class="st0" d="M9.8,13.4L16,7.2l6.2,6.2l3.6-3.6L16,0L6.2,9.8L9.8,13.4z"/>
	<path class="st0" d="M0,16l3.6-3.6L7.2,16l-3.6,3.6L0,16z"/>
	<path class="st0" d="M9.8,18.6l6.2,6.2l6.2-6.2l3.6,3.6l0,0L16,32l-9.8-9.8l0,0L9.8,18.6z"/>
	<path class="st0" d="M24.8,16l3.6-3.6L32,16l-3.6,3.6L24.8,16z"/>
	<path class="st0" d="M19.7,16L16,12.3L13.3,15L13,15.4L12.3,16l0,0l0,0l3.7,3.7L19.7,16L19.7,16L19.7,16z"/>
	<g transform="translate(.55)">
		<path class="st0" d="M37.1,7.8H45c2,0,3.4,0.5,4.4,1.5c0.8,0.8,1.2,1.8,1.2,2.9v0c0,0.4-0.1,0.9-0.2,1.3c-0.1,0.4-0.3,0.7-0.5,1
			c-0.2,0.3-0.4,0.6-0.7,0.8c-0.3,0.2-0.5,0.4-0.9,0.6c0.9,0.3,1.7,0.8,2.3,1.5c0.6,0.6,0.8,1.5,0.8,2.7v0c0,0.7-0.1,1.4-0.4,2
			c-0.3,0.6-0.7,1.1-1.3,1.5c-0.6,0.4-1.3,0.7-2,0.9c-0.9,0.2-1.7,0.3-2.6,0.3h-8.1L37.1,7.8z M44.2,14.6c0.7,0,1.4-0.1,2-0.4
			c0.5-0.3,0.8-0.8,0.7-1.4v0c0-0.5-0.2-1-0.6-1.3c-0.4-0.3-1-0.4-1.8-0.4h-3.7v3.6H44.2z M45.2,21.5c0.7,0,1.4-0.1,1.9-0.4
			c0.5-0.3,0.7-0.8,0.7-1.4v0c0-0.5-0.2-1-0.7-1.3c-0.4-0.3-1.1-0.5-2.1-0.5h-4.3v3.7L45.2,21.5z"/>
		<path class="st0" d="M56.2,7.8h3.7v17h-3.7V7.8z"/>
		<path class="st0" d="M65.6,7.8H69l8,10.4V7.8h3.7v17h-3.2l-8.2-10.8v10.8h-3.7L65.6,7.8z"/>
		<path class="st0" d="M91.9,7.6h3.4l7.3,17.1h-3.9l-1.6-3.8H90l-1.6,3.8h-3.8L91.9,7.6z M95.9,17.6l-2.3-5.5l-2.2,5.5H95.9z"/>
		<path class="st0" d="M106.7,7.8h3.4l8,10.4V7.8h3.7v17h-3.2l-8.2-10.8v10.8h-3.7L106.7,7.8z"/>
		<path class="st0" d="M135.2,25c-1.2,0-2.4-0.2-3.5-0.7c-2.1-0.9-3.7-2.5-4.6-4.6c-0.4-1.1-0.7-2.2-0.7-3.4v0
			c0-2.3,0.9-4.5,2.5-6.2c0.8-0.8,1.7-1.5,2.8-1.9c1.1-0.5,2.4-0.7,3.6-0.7c0.7,0,1.5,0.1,2.2,0.2c0.6,0.1,1.2,0.3,1.8,0.5
			c0.5,0.2,1,0.5,1.5,0.8c0.4,0.3,0.9,0.7,1.3,1.1l-2.4,2.7c-0.6-0.6-1.3-1-2-1.4c-0.7-0.3-1.5-0.5-2.3-0.5c-1.3,0-2.6,0.6-3.5,1.6
			c-0.4,0.5-0.8,1.1-1,1.7c-0.2,0.7-0.4,1.4-0.4,2v0c0,0.7,0.1,1.4,0.4,2c0.2,0.6,0.6,1.2,1,1.7c0.9,1,2.2,1.6,3.5,1.6
			c0.9,0,1.7-0.2,2.5-0.5c0.7-0.4,1.4-0.9,2-1.5l2.4,2.4c-0.4,0.5-0.9,0.9-1.4,1.3c-0.5,0.4-1,0.7-1.5,1c-0.6,0.3-1.2,0.5-1.8,0.6
			C136.7,25,135.9,25,135.2,25z"/>
		<path class="st0" d="M146.6,7.8h12.8v3.3h-9.1v3.4h8v3.3h-8v3.6h9.2v3.3h-12.9L146.6,7.8z"/>
	</g>
</g>
</svg>
