<?xml version="1.0" encoding="utf-8"?>
<!-- Generator: Adobe Illustrator 26.0.3, SVG Export Plug-In . SVG Version: 6.00 Build 0)  -->
<svg version="1.1" id="Layer_1" xmlns="http://www.w3.org/2000/svg" xmlns:xlink="http://www.w3.org/1999/xlink" x="0px" y="0px"
	 viewBox="0 0 28.8 32" style="enable-background:new 0 0 28.8 32;" xml:space="preserve">
<style type="text/css">
	.st0{fill:#A0A9BD;}
</style>
<g>
	<path class="st0" d="M4.8,6.7v19h16.5v-19H4.8z M20.4,11.5l-8.1,8.8h8.1v3.4h-14v-2.9l8.3-8.9H6.4V8.8h14V11.5z"/>
	<path class="st0" d="M25.2,15.5c0,0,2.3-1.7,2.3-6.7c0,0,0.3-5.1-5.4-7.7C20.4,0.3,18.7,0,16.9,0H0.5C0.2,0,0,0.2,0,0.4v31.2
		C0,31.8,0.2,32,0.5,32l16.9-0.1c2.8,0,5.5-0.5,7.7-2c2-1.4,3.2-2.9,3.6-6.4C28.8,23.4,29.5,18.3,25.2,15.5z M20.4,11.5l-8.1,8.8
		h8.1v3.4h-14v-2.9l8.3-8.9H6.4V8.8h14V11.5z"/>
</g>
</svg>
