<?xml version="1.0" encoding="utf-8"?>
<!-- Generator: Adobe Illustrator 26.0.3, SVG Export Plug-In . SVG Version: 6.00 Build 0)  -->
<svg version="1.1" id="Layer_1" xmlns="http://www.w3.org/2000/svg" xmlns:xlink="http://www.w3.org/1999/xlink" x="0px" y="0px"
	 viewBox="0 0 277.1 32" style="enable-background:new 0 0 277.1 32;" xml:space="preserve">
<style type="text/css">
	.st0{fill:#A0A9BD;}
</style>
<g>
	<path class="st0" d="M246,27.5c1.5,1.6,9.7,9.1,22.5,0.4c9.3-7.2,9.1-22.9,8.2-27.7C276.4,0.9,265.6,24.5,246,27.5L246,27.5z
		 M276.7,0.2c-0.1,0-12.1-1.7-23.9,5.9c-7.3,4.7-8.3,11.6-8,16.3C262,20.4,276.3,0.7,276.7,0.2L276.7,0.2z"/>
	<path class="st0" d="M276.7,0.2c-0.1,0-12.1-1.7-23.9,5.9c-7.3,4.7-8.3,11.6-8,16.3C262,20.4,276.3,0.7,276.7,0.2L276.7,0.2z"/>
	<path class="st0" d="M19.2,26.5H5.8v-7.1h13.4c3.3,0,5.1,1.6,5.1,3.7C24.2,25.1,22.5,26.5,19.2,26.5z M18.7,15.6H5.8v-6h12.9
		c3.5,0,4.9,1.2,4.9,2.9C23.6,14.1,22,15.6,18.7,15.6z M22.1,17.4c5.6-0.2,7.7-3,7.7-6c0-3.3-2.7-6.1-9.1-6.1H0v25.5h21.3
		c5.3,0,9.3-2.2,9.3-7C30.6,20.4,28.4,17.6,22.1,17.4L22.1,17.4z M37.4,5.3v25.5h5.8V5.3H37.4z M66.6,10.1h12.7V5.3H48.1v4.8h12.7
		v20.7h5.8L66.6,10.1z M84.3,5.3v25.5h5.8v-9.9h13.6v-4.2H90.1v-7h22V5.3L84.3,5.3z M116.8,5.3v25.5h5.8V5.3H116.8z M136.1,11.5
		l19.2,19.3h6.5V5.3h-5.7v18.4L137.7,5.3h-7.3v25.5h5.7V11.5z M169.6,5.3v25.5h28.3v-4.3h-22.5v-7h13.5v-4h-13.5V9.7h22.5V5.3
		L169.6,5.3z M236.6,5.3H229l-9.7,9l-9.7-9h-7.7l13.6,12.6l-14.1,12.9h7.6l10.2-9.4l10.2,9.4h7.8l-14.1-13L236.6,5.3z"/>
</g>
</svg>
