<?xml version="1.0" encoding="utf-8"?>
<!-- Generator: Adobe Illustrator 26.0.3, SVG Export Plug-In . SVG Version: 6.00 Build 0)  -->
<svg version="1.1" id="Layer_1" xmlns="http://www.w3.org/2000/svg" xmlns:xlink="http://www.w3.org/1999/xlink" x="0px" y="0px"
	 viewBox="0 0 32 32" style="enable-background:new 0 0 32 32;" xml:space="preserve">
<style type="text/css">
	.st0{fill:#A0A9BD;}
</style>
<path class="st0" d="M12.5,15.7l-0.3-0.3c-0.1-0.1-0.3-0.1-0.5,0c-0.1,0.1-0.1,0.1-0.1,0.2v4c0,0.2,0.2,0.3,0.3,0.3c0,0,0,0,0,0h4
	c0.2,0,0.3-0.1,0.3-0.3c0-0.1,0-0.2-0.1-0.2c-0.1-0.1-0.1-0.3,0-0.5l4.2-4.2c0.1-0.1,0.1-0.3,0-0.5c0,0,0,0,0,0l-0.4-0.4
	c-0.1-0.1-0.1-0.3,0-0.5c0.1-0.1,0.1-0.1,0.2-0.1h4c0.2,0,0.3,0.1,0.3,0.3v4c0,0.2-0.2,0.3-0.3,0.3c-0.1,0-0.2,0-0.2-0.1l-0.3-0.3
	c-0.1-0.1-0.3-0.1-0.5,0c0,0,0,0,0,0l-7.1,7.1c-0.1,0.1-0.3,0.1-0.5,0L7,16c-0.1-0.1-0.1-0.3,0-0.5c0,0,0,0,0,0L19.1,3.4
	c0.1-0.1,0.1-0.3,0-0.5l-2.8-2.8c-0.1-0.1-0.3-0.1-0.5,0L0.1,15.8c-0.1,0.1-0.1,0.3,0,0.5l15.7,15.7c0.1,0.1,0.3,0.1,0.5,0
	l15.7-15.7c0.1-0.1,0.1-0.3,0-0.5l-9.2-9.2c-0.1-0.1-0.3-0.1-0.5,0L13,15.7C12.9,15.9,12.7,15.9,12.5,15.7
	C12.5,15.7,12.5,15.7,12.5,15.7L12.5,15.7z"/>
</svg>
