<?xml version="1.0" encoding="utf-8"?>
<!-- Generator: Adobe Illustrator 26.0.3, SVG Export Plug-In . SVG Version: 6.00 Build 0)  -->
<svg version="1.1" id="Layer_1" xmlns="http://www.w3.org/2000/svg" xmlns:xlink="http://www.w3.org/1999/xlink" x="0px" y="0px"
	 viewBox="0 0 106.6 32" style="enable-background:new 0 0 106.6 32;" xml:space="preserve">
<style type="text/css">
	.st0{fill:#A0A9BD;}
</style>
<g>
	<path class="st0" d="M39.6,8v9h-9V9.1c0-0.6-0.5-1.2-1.2-1.2h-3v21.6c0,0.6,0.5,1.2,1.2,1.2h3V20.7h9v8.9c0,0.6,0.5,1.2,1.2,1.2h0
		h3V9.1c0-0.6-0.5-1.2-1.2-1.2L39.6,8L39.6,8z M57.4,13.6v10.8c0,1-0.5,1.9-1.4,2.4c-2.4,1.4-4.8-0.3-4.8-2.6v-9.5
		c0-0.6-0.5-1.2-1.2-1.2h-3v11c0,3.6,2.9,6.4,6.4,6.4h1.7c3.6,0,6.4-2.9,6.4-6.4v-9.8c0-0.6-0.5-1.2-1.2-1.2H57.4z"/>
	<path class="st0" d="M103.4,30.8h3V15.4c0-0.6-0.5-1.2-1.2-1.2h-3v15.3C102.2,30.2,102.7,30.8,103.4,30.8L103.4,30.8z"/>
	<ellipse class="st0" cx="104.3" cy="10.3" rx="2.3" ry="2.3"/>
	<path class="st0" d="M72.5,13.6c-4.4,0-8,3.1-8,7.6v2.4c0,4.4,3.6,7.5,8,7.5c4.4,0,8-3.1,8-7.5v-2.4C80.5,16.8,76.9,13.6,72.5,13.6
		z M76.3,23.8c0,2.1-1.7,3.5-3.8,3.5s-3.8-1.4-3.8-3.5v-3c0-2.1,1.7-3.5,3.8-3.5s3.8,1.4,3.8,3.5V23.8z"/>
	<path class="st0" d="M91.3,13.6c-1.3,0-2.6,0.3-3.8,0.9V9.2C87.5,8.5,87,8,86.4,8h-3v15.6c0,4.4,3.6,7.5,8,7.5s8-3.1,8-7.5v-2.4
		C99.3,16.8,95.8,13.6,91.3,13.6L91.3,13.6z M95.1,23.8c0,2.1-1.7,3.5-3.8,3.5c-2.1,0-3.8-1.4-3.8-3.5v-3c0-2.1,1.7-3.5,3.8-3.5
		c2.1,0,3.8,1.4,3.8,3.5V23.8z"/>
	<path class="st0" d="M13.7,9.8c0-4.6-2.2-8.5-3.9-9.8c0,0-0.1-0.1-0.1,0.1C9.5,9,5,11.4,2.5,14.6c-5.7,7.5-0.4,15.7,5,17.2
		c3,0.8-0.7-1.5-1.2-6.5C5.7,19.4,13.7,14.8,13.7,9.8L13.7,9.8z"/>
	<path class="st0" d="M16.3,12.9c0,0-0.1,0-0.1,0c-0.1,1.1-1.2,3.5-2.7,5.7c-4.9,7.4-2.1,11-0.5,13c0.9,1.1,0,0,2.3-1.1
		c2.8-1.7,4.6-4.7,4.9-7.9C20.6,17.2,17.4,13.8,16.3,12.9L16.3,12.9z"/>
</g>
</svg>
