<?xml version="1.0" encoding="utf-8"?>
<!-- Generator: Adobe Illustrator 26.0.3, SVG Export Plug-In . SVG Version: 6.00 Build 0)  -->
<svg version="1.1" id="svg5775" xmlns="http://www.w3.org/2000/svg" xmlns:xlink="http://www.w3.org/1999/xlink" x="0px" y="0px"
	 viewBox="0 0 29.3 32" style="enable-background:new 0 0 29.3 32;" xml:space="preserve">
<style type="text/css">
	.st0{fill:#A0A9BD;}
</style>
<g id="layer1">
	<g id="g6382" transform="matrix(.847 0 0 .847 102.755 165.85)">
		<path id="rect6336" class="st0" d="M-118.1-192.6c1.8,0,3.2,1.4,3.2,3.2v25c0,1.8-1.4,3.2-3.2,3.2s-3.2-1.4-3.2-3.2v-25
			C-121.3-191.2-119.9-192.6-118.1-192.6z"/>
		<path id="rect6338" class="st0" d="M-97.4-194.6c1.2,1.3,1.2,3.3,0,4.5l-17.7,17.6c-1.3,1.2-3.3,1.2-4.5,0c-1.2-1.3-1.2-3.3,0-4.5
			l17.7-17.6C-100.6-195.8-98.6-195.8-97.4-194.6L-97.4-194.6z"/>
		<path id="rect6340" class="st0" d="M-97.4-159.3c1.2-1.3,1.2-3.3,0-4.5l-17.7-17.6c-1.3-1.2-3.3-1.2-4.5,0c-1.2,1.3-1.2,3.3,0,4.5
			l17.7,17.6C-100.6-158-98.6-158.1-97.4-159.3z"/>
		<path id="rect6361-4" class="st0" d="M-87.7-172.8c1.2,1.3,1.2,3.3,0,4.5L-97-159c-1.3,1.2-3.3,1.2-4.5,0c-1.2-1.3-1.2-3.3,0-4.5
			l9.3-9.3C-91-174.1-88.9-174-87.7-172.8z"/>
		<path id="rect6378" class="st0" d="M-87.7-181c1.2-1.3,1.2-3.3,0-4.5l-9.3-9.3c-1.3-1.2-3.3-1.2-4.5,0c-1.2,1.3-1.2,3.3,0,4.5
			l9.3,9.3C-91-179.8-88.9-179.8-87.7-181z"/>
		<circle id="path6380" class="st0" cx="-99.3" cy="-176.9" r="3.2"/>
	</g>
</g>
</svg>
