<?xml version="1.0" encoding="utf-8"?>
<!-- Generator: Adobe Illustrator 26.0.3, SVG Export Plug-In . SVG Version: 6.00 Build 0)  -->
<svg version="1.1" id="Layer_1" xmlns="http://www.w3.org/2000/svg" xmlns:xlink="http://www.w3.org/1999/xlink" x="0px" y="0px"
	 viewBox="0 0 40.7 32" style="enable-background:new 0 0 40.7 32;" xml:space="preserve">
<style type="text/css">
	.st0{fill:#A0A9BD;}
</style>
<path id="_x23_0da8ffff" class="st0" d="M19.1,0c3.5-0.2,7.1,0.5,10.3,2.1c4.7,2.3,8.4,6.4,10.2,11.3c0.8,2.2,1.2,4.5,1.2,6.7v8.5
	c0,0.4,0,0.7-0.1,1c-0.2,0.9-0.8,1.6-1.6,2c-0.6,0.3-1.2,0.3-1.8,0.2c-1.3-0.2-2.3-1.5-2.3-2.8c0-2.6,0-5.3,0-7.9
	c0-0.7,0-1.6-0.4-2.2c-0.7-1.2-2.3-1.8-3.5-1.3c-1.1,0.4-1.9,1.5-1.9,2.6c0,2.7,0,5.4,0,8.1c0,0.5,0,1-0.1,1.5c-0.3,0.9-1.1,1.7-2,2
	c-1.2,0.3-2.7-0.2-3.3-1.4c-0.4-0.7-0.4-1.5-0.4-2.3c0-2.7,0-5.3,0-8c0-1.4-1.1-2.6-2.5-2.7c-0.9-0.1-1.8,0.2-2.4,0.8
	c-0.6,0.5-0.9,1.3-0.9,2.1v7.8c0,0.7,0.1,1.3-0.2,1.9c-0.4,1.1-1.5,1.9-2.7,1.9c-1.2,0.1-2.4-0.8-2.8-1.9c-0.2-0.6-0.2-1.2-0.2-1.8
	c0-2.7,0-5.4,0-8c0-1.3-1-2.5-2.3-2.8c-1.2-0.3-2.5,0.3-3.1,1.4c-0.3,0.4-0.4,1-0.4,1.5v8.7c0,0.8-0.4,1.7-1,2.2
	c-1,0.9-2.6,0.9-3.6,0.1C0.5,30.9,0,30,0,29.1v-8.8c0-3.3,0.9-6.7,2.4-9.6c1.3-2.4,3.1-4.5,5.2-6.2C10.9,1.9,15,0.3,19.1,0z"/>
</svg>
