<?xml version="1.0" encoding="utf-8"?>
<!-- Generator: Adobe Illustrator 26.0.3, SVG Export Plug-In . SVG Version: 6.00 Build 0)  -->
<svg version="1.1" id="Layer_1" xmlns="http://www.w3.org/2000/svg" xmlns:xlink="http://www.w3.org/1999/xlink" x="0px" y="0px"
	 viewBox="0 0 90.4 32" style="enable-background:new 0 0 90.4 32;" xml:space="preserve">
<style type="text/css">
	.st0{fill:#A0A9BD;}
</style>
<g>
	<path class="st0" d="M50.8,16c0,1.1-0.2,2.1-0.5,3c-0.3,1-0.8,1.8-1.5,2.5c-0.6,0.7-1.4,1.3-2.4,1.7s-2,0.6-3.2,0.6
		c-1.2,0-2.3-0.2-3.2-0.6c-1-0.4-1.7-1-2.4-1.7s-1.1-1.5-1.5-2.5c-0.3-1-0.5-1.9-0.5-3c0-1.1,0.2-2.1,0.5-3s0.8-1.8,1.5-2.5
		c0.6-0.7,1.5-1.3,2.4-1.7c1-0.4,2-0.6,3.2-0.6c1.2,0,2.3,0.2,3.2,0.6c1,0.4,1.7,1,2.4,1.7c0.6,0.7,1.1,1.5,1.5,2.5
		S50.8,14.9,50.8,16z M43.2,21.3c0.7,0,1.4-0.1,1.9-0.4c0.6-0.3,1-0.6,1.4-1.1c0.4-0.5,0.6-1,0.8-1.7c0.2-0.6,0.3-1.4,0.3-2.1
		c0-0.8-0.1-1.5-0.3-2.1s-0.5-1.2-0.8-1.7c-0.4-0.5-0.8-0.8-1.4-1.1c-0.6-0.3-1.2-0.4-1.9-0.4s-1.4,0.1-1.9,0.4
		c-0.6,0.3-1,0.6-1.4,1.1c-0.4,0.5-0.6,1-0.8,1.7s-0.3,1.4-0.3,2.1c0,0.8,0.1,1.5,0.3,2.1s0.5,1.2,0.8,1.7c0.4,0.5,0.8,0.8,1.4,1.1
		C41.8,21.2,42.5,21.3,43.2,21.3z M52.8,23.5V8.4H56v7.2l5.2-7.2h3.7l-5.6,7.5l5.9,7.6h-3.9L56,16.1v7.4H52.8z M66.5,8.4h9.1v2.5
		h-5.9v3.7h5.6v2.5h-5.6V21h6v2.5h-9.1L66.5,8.4L66.5,8.4z M86.9,8.4h3.4l-5,7.5l5.1,7.6H87l-3.3-5.1l-3.3,5.1H77l5.1-7.6l-5-7.5
		h3.4l3.2,5.1L86.9,8.4z"/>
	<circle class="st0" cx="16" cy="7.2" r="7.2"/>
	<circle class="st0" cx="16" cy="24.8" r="7.2"/>
	<circle class="st0" cx="24.8" cy="16" r="7.2"/>
	<circle class="st0" cx="7.2" cy="16" r="7.2"/>
	<path class="st0" d="M14.3,14.3C11.7,13.7,9.6,11.6,9,9C11.6,9.6,13.6,11.7,14.3,14.3z"/>
	<path class="st0" d="M9,23c0.6-2.6,2.7-4.7,5.3-5.3C13.6,20.3,11.6,22.4,9,23L9,23z"/>
	<path class="st0" d="M17.7,17.7c2.6,0.6,4.7,2.7,5.3,5.3C20.4,22.4,18.4,20.3,17.7,17.7L17.7,17.7z"/>
	<path class="st0" d="M23,9c-0.6,2.6-2.7,4.7-5.3,5.3C18.4,11.7,20.4,9.6,23,9L23,9z"/>
</g>
</svg>
