<svg id="Layer_1" data-name="Layer 1" xmlns="http://www.w3.org/2000/svg" viewBox="0 0 206 32"><defs><style>.cls-1{fill:#a0a9bd;}</style></defs><path class="cls-1" d="M54.94,9.79a14.81,14.81,0,0,0-.41-3.17A7,7,0,0,0,50,1.22,35,35,0,0,0,45.76.27C45.45.2,45.15.09,44.85,0H38.33a2.79,2.79,0,0,1-.6.24C37,.35,36.34.38,35.66.5,32.93,1,30.6,2.16,29.29,4.79a9.6,9.6,0,0,0-1,4.08c-.08,3.34-.11,6.69-.09,10,0,1.86.08,3.73.27,5.58a7.53,7.53,0,0,0,4,6.2A11.24,11.24,0,0,0,37.55,32c2.5,0,5,.07,7.51,0a18,18,0,0,0,4-.58,6.86,6.86,0,0,0,5-4.4,14.4,14.4,0,0,0,.8-4.26C55,18.4,55,14.09,54.94,9.79ZM47.87,21.34a8.46,8.46,0,0,1-.28,2,3.58,3.58,0,0,1-3.27,2.73,17.22,17.22,0,0,1-6-.11A3.42,3.42,0,0,1,35.49,23a24.08,24.08,0,0,1-.3-3.61c0-2.88.05-5.77.11-8.66a7.51,7.51,0,0,1,.29-1.88,3.5,3.5,0,0,1,3.1-2.6A16.24,16.24,0,0,1,45,6.37a3.35,3.35,0,0,1,2.7,3c.19,2.26.26,4.53.38,6.8h-.17C47.89,17.9,47.91,19.62,47.87,21.34Z"/><path class="cls-1" d="M105.48,10.58a21.64,21.64,0,0,0-.41-3.77,7,7,0,0,0-4.58-5.59,36.11,36.11,0,0,0-4-.94c-.34-.08-.67-.19-1-.28H88.79a3.23,3.23,0,0,1-.65.25c-1,.17-2,.26-3,.48A7.88,7.88,0,0,0,78.85,8a36,36,0,0,0-.19,3.74c0,4.1,0,8.2.23,12.29a7.5,7.5,0,0,0,4.53,6.92,11.45,11.45,0,0,0,4.71,1c2.48,0,5,.07,7.44,0a16.79,16.79,0,0,0,3.93-.56,7.31,7.31,0,0,0,5.61-6.31,30.65,30.65,0,0,0,.37-4.28C105.53,17.39,105.53,14,105.48,10.58Zm-7.2,11.7a3.82,3.82,0,0,1-3.85,3.85A18.18,18.18,0,0,1,88.92,26a3.62,3.62,0,0,1-3-3.23,7.52,7.52,0,0,1-.14-1.34c0-3.91,0-7.83.15-11.74a3.34,3.34,0,0,1,2.46-3.2,7.7,7.7,0,0,1,2.17-.36A31,31,0,0,1,95,6.26a3.61,3.61,0,0,1,3.31,3.61c.1,1,.15,2.09.18,3.13s0,2.05,0,3.08h.07C98.46,18.15,98.43,20.22,98.28,22.28Z"/><path class="cls-1" d="M25,5.7a6.08,6.08,0,0,0-4-4.53A12.62,12.62,0,0,0,16.85.5H.43V31.75c2.09,0,4.18,0,6.27,0,.59,0,.77-.15.77-.75,0-3,0-6,0-9,0-.81,0-.81.84-.81,2.21,0,4.43,0,6.64,0a33.19,33.19,0,0,0,4-.16c2.82-.37,5-1.65,5.89-4.56A19.29,19.29,0,0,0,25,5.7Zm-6.47,7.8A2.51,2.51,0,0,1,16,15.87c-2.68.1-5.37.07-8,.1-.41,0-.51-.22-.51-.59,0-1.1,0-2.21,0-3.31,0-.41,0-.83,0-1.24s0-.81,0-1.21V8.29c0-.65,0-1.3,0-1.95,0-.43.13-.64.6-.63,2.52,0,5,0,7.56.08a2.76,2.76,0,0,1,3,3C18.7,10.35,18.64,11.93,18.56,13.5Z"/><path class="cls-1" d="M205.57,31.75c-2.86,0-5.73,0-8.6,0a.89.89,0,0,1-.6-.33c-1.32-1.82-2.64-3.65-3.93-5.49a.72.72,0,0,1,0-.64c1.41-2,2.85-4,4.28-6a.7.7,0,0,1,.21-.13c.14.2.29.39.42.58l7.89,11.36c.1.14.24.26.36.4Z"/><path class="cls-1" d="M128.73,21.59c0-.26,0-.51,0-.77q0-9.75,0-19.5c0-.82,0-.82.79-.82h5.63c0,.26,0,.46,0,.66V30.88c0,.88,0,.89-.86.89-2.14,0-4.27,0-6.4,0a1,1,0,0,1-1-.58q-5.13-9.52-10.29-19a9.84,9.84,0,0,0-1.12-1.74,5.85,5.85,0,0,0-.07.72q0,9.87,0,19.75c0,.87,0,.87-.87.87-1.67,0-3.33,0-5,0-.49,0-.63-.16-.63-.64q0-15,0-30c0-.5.17-.61.64-.61,2.28,0,4.55,0,6.83,0a.76.76,0,0,1,.77.46q5.51,10.11,11,20.23c.09.15.19.29.29.44Z"/><path class="cls-1" d="M172.43.54V3c0,.93,0,1.85,0,2.77,0,.49-.15.62-.63.62H158.65c-.83,0-.83,0-.83.81,0,1.68,0,3.36,0,5,0,.56.15.74.74.73,4.2,0,8.4,0,12.61,0,.79,0,.79,0,.79.82,0,1.42,0,2.84,0,4.25,0,.6-.14.81-.78.81-4.15,0-8.29,0-12.43,0-.94,0-.93,0-.93,1,0,1.76,0,3.53,0,5.29,0,.78,0,.79.79.79,4.34,0,8.69,0,13,0,.61,0,.82.15.8.79,0,1.45,0,2.91,0,4.37,0,.58-.14.77-.75.77q-10,0-20.06,0c-.57,0-.73-.18-.73-.74,0-5.37,0-10.74,0-16.12,0-4.57,0-9.14,0-13.72,0-.51.08-.71.66-.71,6.75,0,13.5,0,20.24,0C172,.5,172.18.53,172.43.54Z"/><path class="cls-1" d="M174.51,31.76l2.78-4q3.87-5.55,7.74-11.09a.78.78,0,0,0,0-1q-4.81-7.23-9.61-14.5l-.37-.57a2.74,2.74,0,0,1,.43-.06c2.69,0,5.37,0,8.06,0a1,1,0,0,1,.74.39c3.36,4.88,6.69,9.77,10,14.65a.81.81,0,0,1,0,1.12Q189.14,23.85,184,31.07a1.44,1.44,0,0,1-1.35.71c-2.46,0-4.92,0-7.38,0Z"/><path class="cls-1" d="M58.08.54h6.84c0,.25,0,.5,0,.76V24.85c0,1,0,1,1,1,3.46,0,6.92,0,10.39,0,.48,0,.64.12.63.62,0,1.56,0,3.11,0,4.67,0,.48-.12.63-.62.63q-8.86,0-17.71,0c-.68,0-.6-.38-.6-.79q0-12.82,0-25.64V.54Z"/><path class="cls-1" d="M139.68.5h1.86c1.42,0,2.83,0,4.25,0,.58,0,.76.15.76.74q0,9.79,0,19.57c0,3.4,0,6.81,0,10.21,0,.59-.17.78-.77.77-1.84,0-3.69,0-5.53,0-.44,0-.63-.1-.62-.57q0-15.18,0-30.34C139.64.78,139.66.7,139.68.5Z"/><path class="cls-1" d="M196.87,13.09l-1.35-1.95c-1-1.5-2-3-3.05-4.47a.66.66,0,0,1,0-.88c1.13-1.63,2.24-3.29,3.37-4.92a.9.9,0,0,1,.62-.38c2.81,0,5.62,0,8.43,0a1.09,1.09,0,0,1,.25.07Z"/></svg>